<?xml version="1.0" encoding="utf-8"?>
<!-- Generator: Adobe Illustrator 27.0.0, SVG Export Plug-In . SVG Version: 6.00 Build 0)  -->
<svg version="1.1" xmlns="http://www.w3.org/2000/svg" xmlns:xlink="http://www.w3.org/1999/xlink" x="0px" y="0px"
	 viewBox="0 0 100 100" style="enable-background:new 0 0 100 100;" xml:space="preserve">
<style type="text/css">
	.st0{fill:#10191D;}
</style>
<g id="Layer_2">
</g>
<g id="Layer_1">
	<path class="st0" d="M55.3,5.3c-23.2,0-42.3,17.7-44.5,40.3H4.4C2,45.6,0,47.6,0,50s2,4.4,4.4,4.4h34.1c1.7,0,3.2-0.9,3.9-2.4
		l3.7-7.2l11.3,21.8c0.7,1.5,2.2,2.4,3.9,2.4s3.2-0.9,3.9-2.4l6.3-12.3h6.3c2.4,0,4.4-2,4.4-4.4c0-2.4-2-4.4-4.4-4.4h-8.9
		c-1.7,0-3.2,0.9-3.9,2.4l-3.7,7.2L50,33.4c-1.5-2.9-6.3-2.9-7.8,0l-6.3,12.3H19.6c2.2-17.8,17.4-31.6,35.7-31.6
		c19.8,0,36,16.1,36,36S75.1,86,55.3,86C40.3,86,27.4,76.7,22,63.7h-9.4c5.8,18,22.7,31.1,42.6,31.1C79.9,94.7,100,74.6,100,50
		S79.9,5.3,55.3,5.3z"/>
</g>
</svg>
