<?xml version="1.0" encoding="utf-8"?>
<!-- Generator: Adobe Illustrator 27.6.1, SVG Export Plug-In . SVG Version: 6.00 Build 0)  -->
<svg version="1.1" id="Layer_1" xmlns="http://www.w3.org/2000/svg" xmlns:xlink="http://www.w3.org/1999/xlink" x="0px" y="0px"
	 viewBox="0 0 100 100" style="enable-background:new 0 0 100 100;" xml:space="preserve">
<style type="text/css">
	.st0{fill:#22C55E;}
</style>
<g id="Layer_2_00000049939751470260487250000010995771473186009521_">
</g>
<g id="Layer_1_00000127036406413374134800000009864274519161085100_">
	<path class="st0" d="M55.3,5.3C32.1,5.3,13,23,10.8,45.6H4.4C2,45.6,0,47.6,0,50s2,4.4,4.4,4.4h34.1c1.7,0,3.2-0.9,3.9-2.4l3.7-7.2
		l11.3,21.8c0.7,1.5,2.2,2.4,3.9,2.4s3.2-0.9,3.9-2.4l6.3-12.3h6.3c2.4,0,4.4-2,4.4-4.4s-2-4.4-4.4-4.4h-8.9c-1.7,0-3.2,0.9-3.9,2.4
		l-3.7,7.2L50,33.4c-1.5-2.9-6.3-2.9-7.8,0l-6.3,12.3H19.6C21.8,27.9,37,14.1,55.3,14.1c19.8,0,36,16.1,36,36S75.1,86,55.3,86
		c-15,0-27.9-9.3-33.3-22.3h-9.4c5.8,18,22.7,31.1,42.6,31.1C79.9,94.7,100,74.6,100,50S79.9,5.3,55.3,5.3z"/>
</g>
</svg>
